<?xml version="1.0" standalone="no"?><svg xmlns="http://www.w3.org/2000/svg" viewBox="0 0 1440 320"><path fill="#fff" fill-opacity="1" d="M0,224L26.7,213.3C53.3,203,107,181,160,154.7C213.3,128,267,96,320,85.3C373.3,75,427,85,480,106.7C533.3,128,587,160,640,165.3C693.3,171,747,149,800,133.3C853.3,117,907,107,960,122.7C1013.3,139,1067,181,1120,208C1173.3,235,1227,245,1280,234.7C1333.3,224,1387,192,1413,176L1440,160L1440,0L1413.3,0C1386.7,0,1333,0,1280,0C1226.7,0,1173,0,1120,0C1066.7,0,1013,0,960,0C906.7,0,853,0,800,0C746.7,0,693,0,640,0C586.7,0,533,0,480,0C426.7,0,373,0,320,0C266.7,0,213,0,160,0C106.7,0,53,0,27,0L0,0Z"></path></svg>