<?xml version="1.0" standalone="no"?>
<svg xmlns:xlink="http://www.w3.org/1999/xlink" id="wave" style="transform:rotate(180deg); transition: 0.3s" viewBox="0 0 1440 490" version="1.1" xmlns="http://www.w3.org/2000/svg"><defs><linearGradient id="sw-gradient-0" x1="0" x2="0" y1="1" y2="0"><stop stop-color="rgba(62, 135.687, 243, 1)" offset="0%"/><stop stop-color="rgba(255, 11, 251.142, 1)" offset="100%"/></linearGradient></defs><path style="transform:translate(0, 0px); opacity:1" fill="url(#sw-gradient-0)" d="M0,196L48,171.5C96,147,192,98,288,122.5C384,147,480,245,576,236.8C672,229,768,114,864,106.2C960,98,1056,196,1152,236.8C1248,278,1344,261,1440,220.5C1536,180,1632,114,1728,147C1824,180,1920,310,2016,326.7C2112,343,2208,245,2304,187.8C2400,131,2496,114,2592,130.7C2688,147,2784,196,2880,236.8C2976,278,3072,310,3168,326.7C3264,343,3360,343,3456,334.8C3552,327,3648,310,3744,253.2C3840,196,3936,98,4032,73.5C4128,49,4224,98,4320,155.2C4416,212,4512,278,4608,310.3C4704,343,4800,343,4896,318.5C4992,294,5088,245,5184,212.3C5280,180,5376,163,5472,138.8C5568,114,5664,82,5760,65.3C5856,49,5952,49,6048,49C6144,49,6240,49,6336,89.8C6432,131,6528,212,6624,236.8C6720,261,6816,229,6864,212.3L6912,196L6912,490L6864,490C6816,490,6720,490,6624,490C6528,490,6432,490,6336,490C6240,490,6144,490,6048,490C5952,490,5856,490,5760,490C5664,490,5568,490,5472,490C5376,490,5280,490,5184,490C5088,490,4992,490,4896,490C4800,490,4704,490,4608,490C4512,490,4416,490,4320,490C4224,490,4128,490,4032,490C3936,490,3840,490,3744,490C3648,490,3552,490,3456,490C3360,490,3264,490,3168,490C3072,490,2976,490,2880,490C2784,490,2688,490,2592,490C2496,490,2400,490,2304,490C2208,490,2112,490,2016,490C1920,490,1824,490,1728,490C1632,490,1536,490,1440,490C1344,490,1248,490,1152,490C1056,490,960,490,864,490C768,490,672,490,576,490C480,490,384,490,288,490C192,490,96,490,48,490L0,490Z"/></svg>